<svg xmlns="http://www.w3.org/2000/svg" version="1.1" viewBox="0 0 800 800"><g width="800" height="800">
  <rect x="0" y="0" width="800" height="800" style="fill:#f9f9fa;shape-rendering:crispEdges;"/>
  <path x="0" y="0" style="fill:#2a2a2e;shape-rendering:crispEdges;" d="M0,0 V27.59 H27.59 V0 H0 Z M27.59,0 V27.59 H55.17 V0 H27.59 Z M55.17,0 V27.59 H82.76 V0 H55.17 Z M82.76,0 V27.59 H110.34 V0 H82.76 Z M110.34,0 V27.59 H137.93 V0 H110.34 Z M137.93,0 V27.59 H165.52 V0 H137.93 Z M165.52,0 V27.59 H193.10 V0 H165.52 Z M220.69,0 V27.59 H248.28 V0 H220.69 Z M275.86,0 V27.59 H303.45 V0 H275.86 Z M303.45,0 V27.59 H331.03 V0 H303.45 Z M331.03,0 V27.59 H358.62 V0 H331.03 Z M386.21,0 V27.59 H413.79 V0 H386.21 Z M468.97,0 V27.59 H496.55 V0 H468.97 Z M496.55,0 V27.59 H524.14 V0 H496.55 Z M524.14,0 V27.59 H551.72 V0 H524.14 Z M551.72,0 V27.59 H579.31 V0 H551.72 Z M606.90,0 V27.59 H634.48 V0 H606.90 Z M634.48,0 V27.59 H662.07 V0 H634.48 Z M662.07,0 V27.59 H689.66 V0 H662.07 Z M689.66,0 V27.59 H717.24 V0 H689.66 Z M717.24,0 V27.59 H744.83 V0 H717.24 Z M744.83,0 V27.59 H772.41 V0 H744.83 Z M772.41,0 V27.59 H800 V0 H772.41 Z M0,27.59 V55.17 H27.59 V27.59 H0 Z M165.52,27.59 V55.17 H193.10 V27.59 H165.52 Z M248.28,27.59 V55.17 H275.86 V27.59 H248.28 Z M275.86,27.59 V55.17 H303.45 V27.59 H275.86 Z M358.62,27.59 V55.17 H386.21 V27.59 H358.62 Z M496.55,27.59 V55.17 H524.14 V27.59 H496.55 Z M606.90,27.59 V55.17 H634.48 V27.59 H606.90 Z M772.41,27.59 V55.17 H800 V27.59 H772.41 Z M0,55.17 V82.76 H27.59 V55.17 H0 Z M55.17,55.17 V82.76 H82.76 V55.17 H55.17 Z M82.76,55.17 V82.76 H110.34 V55.17 H82.76 Z M110.34,55.17 V82.76 H137.93 V55.17 H110.34 Z M165.52,55.17 V82.76 H193.10 V55.17 H165.52 Z M248.28,55.17 V82.76 H275.86 V55.17 H248.28 Z M358.62,55.17 V82.76 H386.21 V55.17 H358.62 Z M413.79,55.17 V82.76 H441.38 V55.17 H413.79 Z M551.72,55.17 V82.76 H579.31 V55.17 H551.72 Z M606.90,55.17 V82.76 H634.48 V55.17 H606.90 Z M662.07,55.17 V82.76 H689.66 V55.17 H662.07 Z M689.66,55.17 V82.76 H717.24 V55.17 H689.66 Z M717.24,55.17 V82.76 H744.83 V55.17 H717.24 Z M772.41,55.17 V82.76 H800 V55.17 H772.41 Z M0,82.76 V110.34 H27.59 V82.76 H0 Z M55.17,82.76 V110.34 H82.76 V82.76 H55.17 Z M82.76,82.76 V110.34 H110.34 V82.76 H82.76 Z M110.34,82.76 V110.34 H137.93 V82.76 H110.34 Z M165.52,82.76 V110.34 H193.10 V82.76 H165.52 Z M275.86,82.76 V110.34 H303.45 V82.76 H275.86 Z M303.45,82.76 V110.34 H331.03 V82.76 H303.45 Z M441.38,82.76 V110.34 H468.97 V82.76 H441.38 Z M468.97,82.76 V110.34 H496.55 V82.76 H468.97 Z M551.72,82.76 V110.34 H579.31 V82.76 H551.72 Z M606.90,82.76 V110.34 H634.48 V82.76 H606.90 Z M662.07,82.76 V110.34 H689.66 V82.76 H662.07 Z M689.66,82.76 V110.34 H717.24 V82.76 H689.66 Z M717.24,82.76 V110.34 H744.83 V82.76 H717.24 Z M772.41,82.76 V110.34 H800 V82.76 H772.41 Z M0,110.34 V137.93 H27.59 V110.34 H0 Z M55.17,110.34 V137.93 H82.76 V110.34 H55.17 Z M82.76,110.34 V137.93 H110.34 V110.34 H82.76 Z M110.34,110.34 V137.93 H137.93 V110.34 H110.34 Z M165.52,110.34 V137.93 H193.10 V110.34 H165.52 Z M303.45,110.34 V137.93 H331.03 V110.34 H303.45 Z M331.03,110.34 V137.93 H358.62 V110.34 H331.03 Z M358.62,110.34 V137.93 H386.21 V110.34 H358.62 Z M413.79,110.34 V137.93 H441.38 V110.34 H413.79 Z M441.38,110.34 V137.93 H468.97 V110.34 H441.38 Z M468.97,110.34 V137.93 H496.55 V110.34 H468.97 Z M524.14,110.34 V137.93 H551.72 V110.34 H524.14 Z M606.90,110.34 V137.93 H634.48 V110.34 H606.90 Z M662.07,110.34 V137.93 H689.66 V110.34 H662.07 Z M689.66,110.34 V137.93 H717.24 V110.34 H689.66 Z M717.24,110.34 V137.93 H744.83 V110.34 H717.24 Z M772.41,110.34 V137.93 H800 V110.34 H772.41 Z M0,137.93 V165.52 H27.59 V137.93 H0 Z M165.52,137.93 V165.52 H193.10 V137.93 H165.52 Z M275.86,137.93 V165.52 H303.45 V137.93 H275.86 Z M303.45,137.93 V165.52 H331.03 V137.93 H303.45 Z M331.03,137.93 V165.52 H358.62 V137.93 H331.03 Z M358.62,137.93 V165.52 H386.21 V137.93 H358.62 Z M386.21,137.93 V165.52 H413.79 V137.93 H386.21 Z M413.79,137.93 V165.52 H441.38 V137.93 H413.79 Z M551.72,137.93 V165.52 H579.31 V137.93 H551.72 Z M606.90,137.93 V165.52 H634.48 V137.93 H606.90 Z M772.41,137.93 V165.52 H800 V137.93 H772.41 Z M0,165.52 V193.10 H27.59 V165.52 H0 Z M27.59,165.52 V193.10 H55.17 V165.52 H27.59 Z M55.17,165.52 V193.10 H82.76 V165.52 H55.17 Z M82.76,165.52 V193.10 H110.34 V165.52 H82.76 Z M110.34,165.52 V193.10 H137.93 V165.52 H110.34 Z M137.93,165.52 V193.10 H165.52 V165.52 H137.93 Z M165.52,165.52 V193.10 H193.10 V165.52 H165.52 Z M220.69,165.52 V193.10 H248.28 V165.52 H220.69 Z M275.86,165.52 V193.10 H303.45 V165.52 H275.86 Z M331.03,165.52 V193.10 H358.62 V165.52 H331.03 Z M386.21,165.52 V193.10 H413.79 V165.52 H386.21 Z M441.38,165.52 V193.10 H468.97 V165.52 H441.38 Z M496.55,165.52 V193.10 H524.14 V165.52 H496.55 Z M551.72,165.52 V193.10 H579.31 V165.52 H551.72 Z M606.90,165.52 V193.10 H634.48 V165.52 H606.90 Z M634.48,165.52 V193.10 H662.07 V165.52 H634.48 Z M662.07,165.52 V193.10 H689.66 V165.52 H662.07 Z M689.66,165.52 V193.10 H717.24 V165.52 H689.66 Z M717.24,165.52 V193.10 H744.83 V165.52 H717.24 Z M744.83,165.52 V193.10 H772.41 V165.52 H744.83 Z M772.41,165.52 V193.10 H800 V165.52 H772.41 Z M275.86,193.10 V220.69 H303.45 V193.10 H275.86 Z M303.45,193.10 V220.69 H331.03 V193.10 H303.45 Z M331.03,193.10 V220.69 H358.62 V193.10 H331.03 Z M386.21,193.10 V220.69 H413.79 V193.10 H386.21 Z M468.97,193.10 V220.69 H496.55 V193.10 H468.97 Z M27.59,220.69 V248.28 H55.17 V220.69 H27.59 Z M55.17,220.69 V248.28 H82.76 V220.69 H55.17 Z M82.76,220.69 V248.28 H110.34 V220.69 H82.76 Z M165.52,220.69 V248.28 H193.10 V220.69 H165.52 Z M193.10,220.69 V248.28 H220.69 V220.69 H193.10 Z M220.69,220.69 V248.28 H248.28 V220.69 H220.69 Z M275.86,220.69 V248.28 H303.45 V220.69 H275.86 Z M303.45,220.69 V248.28 H331.03 V220.69 H303.45 Z M331.03,220.69 V248.28 H358.62 V220.69 H331.03 Z M358.62,220.69 V248.28 H386.21 V220.69 H358.62 Z M413.79,220.69 V248.28 H441.38 V220.69 H413.79 Z M441.38,220.69 V248.28 H468.97 V220.69 H441.38 Z M496.55,220.69 V248.28 H524.14 V220.69 H496.55 Z M579.31,220.69 V248.28 H606.90 V220.69 H579.31 Z M772.41,220.69 V248.28 H800 V220.69 H772.41 Z M27.59,248.28 V275.86 H55.17 V248.28 H27.59 Z M55.17,248.28 V275.86 H82.76 V248.28 H55.17 Z M110.34,248.28 V275.86 H137.93 V248.28 H110.34 Z M220.69,248.28 V275.86 H248.28 V248.28 H220.69 Z M248.28,248.28 V275.86 H275.86 V248.28 H248.28 Z M303.45,248.28 V275.86 H331.03 V248.28 H303.45 Z M331.03,248.28 V275.86 H358.62 V248.28 H331.03 Z M358.62,248.28 V275.86 H386.21 V248.28 H358.62 Z M386.21,248.28 V275.86 H413.79 V248.28 H386.21 Z M413.79,248.28 V275.86 H441.38 V248.28 H413.79 Z M468.97,248.28 V275.86 H496.55 V248.28 H468.97 Z M524.14,248.28 V275.86 H551.72 V248.28 H524.14 Z M579.31,248.28 V275.86 H606.90 V248.28 H579.31 Z M606.90,248.28 V275.86 H634.48 V248.28 H606.90 Z M662.07,248.28 V275.86 H689.66 V248.28 H662.07 Z M717.24,248.28 V275.86 H744.83 V248.28 H717.24 Z M744.83,248.28 V275.86 H772.41 V248.28 H744.83 Z M27.59,275.86 V303.45 H55.17 V275.86 H27.59 Z M55.17,275.86 V303.45 H82.76 V275.86 H55.17 Z M110.34,275.86 V303.45 H137.93 V275.86 H110.34 Z M137.93,275.86 V303.45 H165.52 V275.86 H137.93 Z M165.52,275.86 V303.45 H193.10 V275.86 H165.52 Z M193.10,275.86 V303.45 H220.69 V275.86 H193.10 Z M220.69,275.86 V303.45 H248.28 V275.86 H220.69 Z M248.28,275.86 V303.45 H275.86 V275.86 H248.28 Z M275.86,275.86 V303.45 H303.45 V275.86 H275.86 Z M303.45,275.86 V303.45 H331.03 V275.86 H303.45 Z M331.03,275.86 V303.45 H358.62 V275.86 H331.03 Z M441.38,275.86 V303.45 H468.97 V275.86 H441.38 Z M496.55,275.86 V303.45 H524.14 V275.86 H496.55 Z M551.72,275.86 V303.45 H579.31 V275.86 H551.72 Z M579.31,275.86 V303.45 H606.90 V275.86 H579.31 Z M606.90,275.86 V303.45 H634.48 V275.86 H606.90 Z M717.24,275.86 V303.45 H744.83 V275.86 H717.24 Z M27.59,303.45 V331.03 H55.17 V303.45 H27.59 Z M82.76,303.45 V331.03 H110.34 V303.45 H82.76 Z M137.93,303.45 V331.03 H165.52 V303.45 H137.93 Z M193.10,303.45 V331.03 H220.69 V303.45 H193.10 Z M248.28,303.45 V331.03 H275.86 V303.45 H248.28 Z M331.03,303.45 V331.03 H358.62 V303.45 H331.03 Z M358.62,303.45 V331.03 H386.21 V303.45 H358.62 Z M386.21,303.45 V331.03 H413.79 V303.45 H386.21 Z M413.79,303.45 V331.03 H441.38 V303.45 H413.79 Z M468.97,303.45 V331.03 H496.55 V303.45 H468.97 Z M496.55,303.45 V331.03 H524.14 V303.45 H496.55 Z M524.14,303.45 V331.03 H551.72 V303.45 H524.14 Z M579.31,303.45 V331.03 H606.90 V303.45 H579.31 Z M606.90,303.45 V331.03 H634.48 V303.45 H606.90 Z M662.07,303.45 V331.03 H689.66 V303.45 H662.07 Z M689.66,303.45 V331.03 H717.24 V303.45 H689.66 Z M0,331.03 V358.62 H27.59 V331.03 H0 Z M27.59,331.03 V358.62 H55.17 V331.03 H27.59 Z M82.76,331.03 V358.62 H110.34 V331.03 H82.76 Z M110.34,331.03 V358.62 H137.93 V331.03 H110.34 Z M165.52,331.03 V358.62 H193.10 V331.03 H165.52 Z M193.10,331.03 V358.62 H220.69 V331.03 H193.10 Z M220.69,331.03 V358.62 H248.28 V331.03 H220.69 Z M441.38,331.03 V358.62 H468.97 V331.03 H441.38 Z M496.55,331.03 V358.62 H524.14 V331.03 H496.55 Z M524.14,331.03 V358.62 H551.72 V331.03 H524.14 Z M551.72,331.03 V358.62 H579.31 V331.03 H551.72 Z M606.90,331.03 V358.62 H634.48 V331.03 H606.90 Z M634.48,331.03 V358.62 H662.07 V331.03 H634.48 Z M662.07,331.03 V358.62 H689.66 V331.03 H662.07 Z M689.66,331.03 V358.62 H717.24 V331.03 H689.66 Z M717.24,331.03 V358.62 H744.83 V331.03 H717.24 Z M772.41,331.03 V358.62 H800 V331.03 H772.41 Z M27.59,358.62 V386.21 H55.17 V358.62 H27.59 Z M55.17,358.62 V386.21 H82.76 V358.62 H55.17 Z M248.28,358.62 V386.21 H275.86 V358.62 H248.28 Z M275.86,358.62 V386.21 H303.45 V358.62 H275.86 Z M303.45,358.62 V386.21 H331.03 V358.62 H303.45 Z M331.03,358.62 V386.21 H358.62 V358.62 H331.03 Z M468.97,358.62 V386.21 H496.55 V358.62 H468.97 Z M524.14,358.62 V386.21 H551.72 V358.62 H524.14 Z M662.07,358.62 V386.21 H689.66 V358.62 H662.07 Z M717.24,358.62 V386.21 H744.83 V358.62 H717.24 Z M27.59,386.21 V413.79 H55.17 V386.21 H27.59 Z M165.52,386.21 V413.79 H193.10 V386.21 H165.52 Z M193.10,386.21 V413.79 H220.69 V386.21 H193.10 Z M275.86,386.21 V413.79 H303.45 V386.21 H275.86 Z M468.97,386.21 V413.79 H496.55 V386.21 H468.97 Z M551.72,386.21 V413.79 H579.31 V386.21 H551.72 Z M579.31,386.21 V413.79 H606.90 V386.21 H579.31 Z M634.48,386.21 V413.79 H662.07 V386.21 H634.48 Z M662.07,386.21 V413.79 H689.66 V386.21 H662.07 Z M689.66,386.21 V413.79 H717.24 V386.21 H689.66 Z M717.24,386.21 V413.79 H744.83 V386.21 H717.24 Z M0,413.79 V441.38 H27.59 V413.79 H0 Z M55.17,413.79 V441.38 H82.76 V413.79 H55.17 Z M110.34,413.79 V441.38 H137.93 V413.79 H110.34 Z M137.93,413.79 V441.38 H165.52 V413.79 H137.93 Z M193.10,413.79 V441.38 H220.69 V413.79 H193.10 Z M275.86,413.79 V441.38 H303.45 V413.79 H275.86 Z M331.03,413.79 V441.38 H358.62 V413.79 H331.03 Z M413.79,413.79 V441.38 H441.38 V413.79 H413.79 Z M496.55,413.79 V441.38 H524.14 V413.79 H496.55 Z M579.31,413.79 V441.38 H606.90 V413.79 H579.31 Z M606.90,413.79 V441.38 H634.48 V413.79 H606.90 Z M689.66,413.79 V441.38 H717.24 V413.79 H689.66 Z M717.24,413.79 V441.38 H744.83 V413.79 H717.24 Z M772.41,413.79 V441.38 H800 V413.79 H772.41 Z M0,441.38 V468.97 H27.59 V441.38 H0 Z M27.59,441.38 V468.97 H55.17 V441.38 H27.59 Z M82.76,441.38 V468.97 H110.34 V441.38 H82.76 Z M110.34,441.38 V468.97 H137.93 V441.38 H110.34 Z M165.52,441.38 V468.97 H193.10 V441.38 H165.52 Z M193.10,441.38 V468.97 H220.69 V441.38 H193.10 Z M220.69,441.38 V468.97 H248.28 V441.38 H220.69 Z M248.28,441.38 V468.97 H275.86 V441.38 H248.28 Z M275.86,441.38 V468.97 H303.45 V441.38 H275.86 Z M331.03,441.38 V468.97 H358.62 V441.38 H331.03 Z M358.62,441.38 V468.97 H386.21 V441.38 H358.62 Z M496.55,441.38 V468.97 H524.14 V441.38 H496.55 Z M524.14,441.38 V468.97 H551.72 V441.38 H524.14 Z M606.90,441.38 V468.97 H634.48 V441.38 H606.90 Z M634.48,441.38 V468.97 H662.07 V441.38 H634.48 Z M662.07,441.38 V468.97 H689.66 V441.38 H662.07 Z M689.66,441.38 V468.97 H717.24 V441.38 H689.66 Z M772.41,441.38 V468.97 H800 V441.38 H772.41 Z M82.76,468.97 V496.55 H110.34 V468.97 H82.76 Z M110.34,468.97 V496.55 H137.93 V468.97 H110.34 Z M137.93,468.97 V496.55 H165.52 V468.97 H137.93 Z M220.69,468.97 V496.55 H248.28 V468.97 H220.69 Z M441.38,468.97 V496.55 H468.97 V468.97 H441.38 Z M468.97,468.97 V496.55 H496.55 V468.97 H468.97 Z M496.55,468.97 V496.55 H524.14 V468.97 H496.55 Z M551.72,468.97 V496.55 H579.31 V468.97 H551.72 Z M579.31,468.97 V496.55 H606.90 V468.97 H579.31 Z M606.90,468.97 V496.55 H634.48 V468.97 H606.90 Z M689.66,468.97 V496.55 H717.24 V468.97 H689.66 Z M772.41,468.97 V496.55 H800 V468.97 H772.41 Z M0,496.55 V524.14 H27.59 V496.55 H0 Z M27.59,496.55 V524.14 H55.17 V496.55 H27.59 Z M110.34,496.55 V524.14 H137.93 V496.55 H110.34 Z M165.52,496.55 V524.14 H193.10 V496.55 H165.52 Z M193.10,496.55 V524.14 H220.69 V496.55 H193.10 Z M248.28,496.55 V524.14 H275.86 V496.55 H248.28 Z M303.45,496.55 V524.14 H331.03 V496.55 H303.45 Z M358.62,496.55 V524.14 H386.21 V496.55 H358.62 Z M496.55,496.55 V524.14 H524.14 V496.55 H496.55 Z M524.14,496.55 V524.14 H551.72 V496.55 H524.14 Z M551.72,496.55 V524.14 H579.31 V496.55 H551.72 Z M579.31,496.55 V524.14 H606.90 V496.55 H579.31 Z M634.48,496.55 V524.14 H662.07 V496.55 H634.48 Z M689.66,496.55 V524.14 H717.24 V496.55 H689.66 Z M717.24,496.55 V524.14 H744.83 V496.55 H717.24 Z M744.83,496.55 V524.14 H772.41 V496.55 H744.83 Z M55.17,524.14 V551.72 H82.76 V524.14 H55.17 Z M82.76,524.14 V551.72 H110.34 V524.14 H82.76 Z M110.34,524.14 V551.72 H137.93 V524.14 H110.34 Z M248.28,524.14 V551.72 H275.86 V524.14 H248.28 Z M331.03,524.14 V551.72 H358.62 V524.14 H331.03 Z M358.62,524.14 V551.72 H386.21 V524.14 H358.62 Z M468.97,524.14 V551.72 H496.55 V524.14 H468.97 Z M496.55,524.14 V551.72 H524.14 V524.14 H496.55 Z M579.31,524.14 V551.72 H606.90 V524.14 H579.31 Z M606.90,524.14 V551.72 H634.48 V524.14 H606.90 Z M662.07,524.14 V551.72 H689.66 V524.14 H662.07 Z M744.83,524.14 V551.72 H772.41 V524.14 H744.83 Z M27.59,551.72 V579.31 H55.17 V551.72 H27.59 Z M55.17,551.72 V579.31 H82.76 V551.72 H55.17 Z M82.76,551.72 V579.31 H110.34 V551.72 H82.76 Z M165.52,551.72 V579.31 H193.10 V551.72 H165.52 Z M220.69,551.72 V579.31 H248.28 V551.72 H220.69 Z M248.28,551.72 V579.31 H275.86 V551.72 H248.28 Z M386.21,551.72 V579.31 H413.79 V551.72 H386.21 Z M441.38,551.72 V579.31 H468.97 V551.72 H441.38 Z M524.14,551.72 V579.31 H551.72 V551.72 H524.14 Z M551.72,551.72 V579.31 H579.31 V551.72 H551.72 Z M579.31,551.72 V579.31 H606.90 V551.72 H579.31 Z M606.90,551.72 V579.31 H634.48 V551.72 H606.90 Z M634.48,551.72 V579.31 H662.07 V551.72 H634.48 Z M662.07,551.72 V579.31 H689.66 V551.72 H662.07 Z M689.66,551.72 V579.31 H717.24 V551.72 H689.66 Z M717.24,551.72 V579.31 H744.83 V551.72 H717.24 Z M220.69,579.31 V606.90 H248.28 V579.31 H220.69 Z M331.03,579.31 V606.90 H358.62 V579.31 H331.03 Z M358.62,579.31 V606.90 H386.21 V579.31 H358.62 Z M386.21,579.31 V606.90 H413.79 V579.31 H386.21 Z M441.38,579.31 V606.90 H468.97 V579.31 H441.38 Z M551.72,579.31 V606.90 H579.31 V579.31 H551.72 Z M662.07,579.31 V606.90 H689.66 V579.31 H662.07 Z M0,606.90 V634.48 H27.59 V606.90 H0 Z M27.59,606.90 V634.48 H55.17 V606.90 H27.59 Z M55.17,606.90 V634.48 H82.76 V606.90 H55.17 Z M82.76,606.90 V634.48 H110.34 V606.90 H82.76 Z M110.34,606.90 V634.48 H137.93 V606.90 H110.34 Z M137.93,606.90 V634.48 H165.52 V606.90 H137.93 Z M165.52,606.90 V634.48 H193.10 V606.90 H165.52 Z M220.69,606.90 V634.48 H248.28 V606.90 H220.69 Z M275.86,606.90 V634.48 H303.45 V606.90 H275.86 Z M303.45,606.90 V634.48 H331.03 V606.90 H303.45 Z M331.03,606.90 V634.48 H358.62 V606.90 H331.03 Z M358.62,606.90 V634.48 H386.21 V606.90 H358.62 Z M413.79,606.90 V634.48 H441.38 V606.90 H413.79 Z M468.97,606.90 V634.48 H496.55 V606.90 H468.97 Z M524.14,606.90 V634.48 H551.72 V606.90 H524.14 Z M551.72,606.90 V634.48 H579.31 V606.90 H551.72 Z M606.90,606.90 V634.48 H634.48 V606.90 H606.90 Z M662.07,606.90 V634.48 H689.66 V606.90 H662.07 Z M717.24,606.90 V634.48 H744.83 V606.90 H717.24 Z M744.83,606.90 V634.48 H772.41 V606.90 H744.83 Z M0,634.48 V662.07 H27.59 V634.48 H0 Z M165.52,634.48 V662.07 H193.10 V634.48 H165.52 Z M413.79,634.48 V662.07 H441.38 V634.48 H413.79 Z M524.14,634.48 V662.07 H551.72 V634.48 H524.14 Z M551.72,634.48 V662.07 H579.31 V634.48 H551.72 Z M662.07,634.48 V662.07 H689.66 V634.48 H662.07 Z M689.66,634.48 V662.07 H717.24 V634.48 H689.66 Z M0,662.07 V689.66 H27.59 V662.07 H0 Z M55.17,662.07 V689.66 H82.76 V662.07 H55.17 Z M82.76,662.07 V689.66 H110.34 V662.07 H82.76 Z M110.34,662.07 V689.66 H137.93 V662.07 H110.34 Z M165.52,662.07 V689.66 H193.10 V662.07 H165.52 Z M248.28,662.07 V689.66 H275.86 V662.07 H248.28 Z M275.86,662.07 V689.66 H303.45 V662.07 H275.86 Z M303.45,662.07 V689.66 H331.03 V662.07 H303.45 Z M358.62,662.07 V689.66 H386.21 V662.07 H358.62 Z M468.97,662.07 V689.66 H496.55 V662.07 H468.97 Z M524.14,662.07 V689.66 H551.72 V662.07 H524.14 Z M551.72,662.07 V689.66 H579.31 V662.07 H551.72 Z M579.31,662.07 V689.66 H606.90 V662.07 H579.31 Z M606.90,662.07 V689.66 H634.48 V662.07 H606.90 Z M634.48,662.07 V689.66 H662.07 V662.07 H634.48 Z M662.07,662.07 V689.66 H689.66 V662.07 H662.07 Z M717.24,662.07 V689.66 H744.83 V662.07 H717.24 Z M772.41,662.07 V689.66 H800 V662.07 H772.41 Z M0,689.66 V717.24 H27.59 V689.66 H0 Z M55.17,689.66 V717.24 H82.76 V689.66 H55.17 Z M82.76,689.66 V717.24 H110.34 V689.66 H82.76 Z M110.34,689.66 V717.24 H137.93 V689.66 H110.34 Z M165.52,689.66 V717.24 H193.10 V689.66 H165.52 Z M220.69,689.66 V717.24 H248.28 V689.66 H220.69 Z M468.97,689.66 V717.24 H496.55 V689.66 H468.97 Z M579.31,689.66 V717.24 H606.90 V689.66 H579.31 Z M606.90,689.66 V717.24 H634.48 V689.66 H606.90 Z M717.24,689.66 V717.24 H744.83 V689.66 H717.24 Z M772.41,689.66 V717.24 H800 V689.66 H772.41 Z M0,717.24 V744.83 H27.59 V717.24 H0 Z M55.17,717.24 V744.83 H82.76 V717.24 H55.17 Z M82.76,717.24 V744.83 H110.34 V717.24 H82.76 Z M110.34,717.24 V744.83 H137.93 V717.24 H110.34 Z M165.52,717.24 V744.83 H193.10 V717.24 H165.52 Z M220.69,717.24 V744.83 H248.28 V717.24 H220.69 Z M248.28,717.24 V744.83 H275.86 V717.24 H248.28 Z M358.62,717.24 V744.83 H386.21 V717.24 H358.62 Z M386.21,717.24 V744.83 H413.79 V717.24 H386.21 Z M413.79,717.24 V744.83 H441.38 V717.24 H413.79 Z M441.38,717.24 V744.83 H468.97 V717.24 H441.38 Z M468.97,717.24 V744.83 H496.55 V717.24 H468.97 Z M551.72,717.24 V744.83 H579.31 V717.24 H551.72 Z M606.90,717.24 V744.83 H634.48 V717.24 H606.90 Z M744.83,717.24 V744.83 H772.41 V717.24 H744.83 Z M772.41,717.24 V744.83 H800 V717.24 H772.41 Z M0,744.83 V772.41 H27.59 V744.83 H0 Z M165.52,744.83 V772.41 H193.10 V744.83 H165.52 Z M220.69,744.83 V772.41 H248.28 V744.83 H220.69 Z M248.28,744.83 V772.41 H275.86 V744.83 H248.28 Z M358.62,744.83 V772.41 H386.21 V744.83 H358.62 Z M468.97,744.83 V772.41 H496.55 V744.83 H468.97 Z M551.72,744.83 V772.41 H579.31 V744.83 H551.72 Z M662.07,744.83 V772.41 H689.66 V744.83 H662.07 Z M717.24,744.83 V772.41 H744.83 V744.83 H717.24 Z M0,772.41 V800 H27.59 V772.41 H0 Z M27.59,772.41 V800 H55.17 V772.41 H27.59 Z M55.17,772.41 V800 H82.76 V772.41 H55.17 Z M82.76,772.41 V800 H110.34 V772.41 H82.76 Z M110.34,772.41 V800 H137.93 V772.41 H110.34 Z M137.93,772.41 V800 H165.52 V772.41 H137.93 Z M165.52,772.41 V800 H193.10 V772.41 H165.52 Z M331.03,772.41 V800 H358.62 V772.41 H331.03 Z M358.62,772.41 V800 H386.21 V772.41 H358.62 Z M413.79,772.41 V800 H441.38 V772.41 H413.79 Z M468.97,772.41 V800 H496.55 V772.41 H468.97 Z M496.55,772.41 V800 H524.14 V772.41 H496.55 Z M551.72,772.41 V800 H579.31 V772.41 H551.72 Z M662.07,772.41 V800 H689.66 V772.41 H662.07 Z M689.66,772.41 V800 H717.24 V772.41 H689.66 Z M744.83,772.41 V800 H772.41 V772.41 H744.83 Z " /></g></svg>